Patient4_TMGait_0pt4_01_left_36_EMG.mot
version=1
nRows=23
nColumns=33
inDegrees=no
endheader
time	1LAddLong	2LGlutMax	3LGlutMed	4LIliopsoas	5LSemiMemb	6LBicFemLong	7LRecFem	8LVastMed	9LVastLat	10LGasMed	11LTibAnt	12lTibPost	13LPeroneusLong	14LSol	15LExtDigLong	16LFlexDigLong	17RAddLong	18RGlutMax	19RGlutMed	20RIliopsoas	21RSemiMemb	22RBicFemLong	23RRecFem	24RVastMed	25RVastLat	26RGasMed	27RTibAnt	28RTibPost	29RPeroneusLong	30RSol	31RExtDigLong	32RFlexDigLong
45.315	0.002747	-0.043488	-0.062103	0.015869	0.001068	0.071106	-0.62943	-0.003052	0.001831	0.28534	-0.054169	0.003967	0.011749	-0.18097	0.076294	-0.12344	-0.053558	-0.19318	-0.085297	0.044098	0.029602	0.05722	0.35675	0.058136	-0.025635	-0.027161	0.39703	-0.008545	-0.2533	-0.060425	-0.000305	-0.018463
45.316	-0.031891	-0.030365	-0.19592	0.007172	0.007477	0.078735	-0.72281	0.003052	-0.023804	0.23392	0.12054	0.005341	0.062866	-0.14038	0.093689	-0.082397	-0.064545	-0.21896	0.051727	0.029755	0.030975	0.10574	0.30945	0.044708	0.010071	-0.03418	0.73593	-0.006866	-0.37445	-0.052338	-0.001526	-0.014648
45.317	-0.010071	0.079346	-0.18356	-0.007019	-0.011292	0.19501	-0.7515	0.010681	-0.010834	0.13336	0.075989	0.006256	0.063782	-0.098877	0.011749	0.59403	-0.078735	-0.22339	0.041962	0.014191	0.009918	0.05661	0.33844	0.071869	-0.020752	-0.021973	0.37689	-0.005341	-0.2063	-0.057068	0.003357	-0.015259
45.318	-0.01297	0.093536	-0.048828	-0.014496	-0.058746	0.17502	-0.70587	-0.00412	-0.10315	0.076294	-0.037537	0.001678	0.033264	-0.069122	-0.10651	-0.36804	-0.058899	-0.26733	-0.056458	-0.00824	0.005035	0.061035	0.38071	0.041504	-0.000916	-0.014038	-0.63812	-0.010834	-0.12146	-0.11231	0.00061	-0.015564
45.319	0.008698	0.15656	0.099182	0.026398	-0.064697	0.22079	-0.62836	0.003357	-0.087738	-0.052948	-0.0383	0.003204	0.046234	0.021057	-0.14679	0.10864	-0.025024	-0.14267	-0.10025	-0.040436	-0.025177	0.015106	0.383	0.024261	-0.027313	-0.02533	-0.66086	-0.006866	-0.08316	-0.063019	-0.001984	-0.017853
45.32	-0.002594	0.17059	-0.12192	0.007935	-0.010681	0.13458	-0.52582	0.003204	0.11169	-0.16815	0.012512	0.001678	0.029602	0.061188	-0.18295	0.10544	-0.050354	-0.090027	-0.071259	0.013275	-0.088654	0.014648	0.31097	-0.020294	-0.002289	-0.013733	-0.48721	-0.00824	0.044861	-0.01709	-0.00412	-0.012207
45.321	-0.00061	0.1947	-0.16281	0.015411	0.036316	-0.16647	-0.39047	0.004883	0.25955	-0.075531	0.057983	0.014648	-0.014954	0.04364	-0.1358	0.011444	-0.081482	-0.081787	-0.10666	0.039215	-0.11704	0.057678	0.298	-0.010834	-0.019379	-0.010986	-0.28061	-0.006256	0.045929	-0.1329	-0.003357	-0.010834
45.322	-0.006409	0.29999	0.054169	0.011292	-0.00061	-0.10696	-0.34668	0.011139	0.14038	-0.023956	0.056763	0.009003	-0.036469	0.11581	-0.088348	-0.001678	-0.079498	-0.077667	-0.016327	0.030365	-0.056	0.103	0.28519	-0.040436	-0.024719	-0.013275	0.72311	-0.015717	-0.041809	-0.13733	-0.007324	-0.006256
45.323	-0.018921	0.29877	0.08728	0.000305	-0.038147	0.028534	-0.36697	-0.007782	0.092621	-0.084839	0.031281	0.005646	-0.00473	0.1004	-0.02533	-0.00946	-0.084381	-0.12604	0.029144	-0.080719	-0.001068	0.098572	0.31189	-0.015564	-0.019379	-0.009766	0.6247	-0.007172	-0.053558	-0.11566	-0.002289	-0.010834
45.324	-0.003204	0.23758	0.096588	-0.000458	-0.035706	0.103	-0.41702	-0.010071	0.056305	-0.11658	0.002899	0.002899	-0.037231	0.031128	0.000153	-0.008392	-0.074768	-0.094604	0.075073	-0.16312	-0.024261	0.016022	0.27512	-0.04364	-0.026703	-0.009766	-0.021973	-0.00885	-0.057068	-0.044098	-0.002594	-0.004272
45.325	0.00885	0.18005	0.072784	0.005341	-0.004272	0.11841	-0.43778	-0.011292	0.017242	-0.016022	-0.032349	-0.001221	0.005798	0.047607	0.046082	-0.025024	-0.025024	-0.074463	0.15228	-0.12329	-0.042725	-0.026855	0.18326	-0.04715	-0.002289	-0.01358	-0.33218	-0.010376	-0.033417	-0.071411	0.002289	-0.006561
45.326	0.013275	0.1059	0.06897	0.003204	0.022583	0.11887	-0.47119	-0.021973	0.009003	0.013123	-0.0177	0.008392	0.16403	0.070801	0.072784	-0.01709	-0.005798	-0.10422	0.18875	-0.1297	-0.050049	0.003357	0.18982	-0.033722	-0.00824	-0.014801	-0.47623	-0.007782	0.030823	-0.13504	0.00061	-0.005035
45.327	0.014343	0.040588	0.065765	0.005188	-0.019531	0.048218	-0.51956	-0.005341	0.003357	0.023346	-0.071259	0.00351	0.48325	0.082703	-0.005341	-0.00824	-0.005951	-0.1355	0.10056	-0.069427	-0.053101	0.012817	0.16968	-0.037231	0.006104	-0.014343	-0.34149	-0.006409	0.091705	-0.045471	0.000305	-0.001526
45.328	0.009308	0.016022	-0.14984	0.03418	-0.067902	0.017853	-0.48981	0.008392	0.018616	0.046692	-0.060577	0.005035	0.25879	0.043182	0.066986	-0.010071	0.000458	-0.14084	0.016022	0.063934	-0.065765	-0.01236	0.14938	-0.067444	0.010834	-0.011444	-0.22675	-0.003204	0.10544	0.078735	-0.001221	0.000763
45.329	0.006256	0.072937	-0.14038	-0.010529	-0.072937	0.028992	-0.43289	-0.000916	0.014801	0.065002	-0.006714	0.004272	0.050964	0.084381	0.61157	-0.016327	-0.000763	-0.12787	-0.088959	0.10468	-0.063019	0.006104	0.11719	-0.052795	0.010223	-0.013428	-0.057678	-0.00946	0.082703	0.22415	0.001831	-0.002136
45.33	0.018463	0.11429	-0.041809	-0.010834	-0.044708	-0.036163	-0.37155	0.004425	0.035706	0.057678	0.067139	0.001831	-0.327	0.10178	-0.11185	-0.011749	-0.032043	-0.13977	-0.17014	0.1384	-0.056	-0.004425	0.042572	-0.03952	-0.004883	-0.019073	0.039673	-0.009613	0.052948	0.14435	0.000763	-0.016327
45.331	0.015411	0.13428	0.009918	-0.0177	-0.034485	-0.13519	-0.33676	0.014343	0.044403	0.009613	0.037079	-0.003967	0.058441	0.054321	-0.17746	0.006409	-0.042572	-0.16937	-0.23972	0.11856	-0.059509	0.034943	0.050964	-0.059204	-0.010834	-0.0177	0.034485	-0.011749	0.036011	0.067596	-0.002747	-0.010529
45.332	0.007019	0.15305	0.001678	0.015106	-0.08667	-0.1181	-0.31448	0.027924	-0.009308	-0.021667	0.006714	-0.006256	0.3093	0.14389	-0.097504	-0.003815	-0.067291	-0.12054	-0.18616	0.15076	-0.053711	0.049744	0.063782	-0.055389	-0.019226	-0.022583	0.000916	-0.00473	0.050201	0.015869	-0.000458	-0.010376
45.333	-0.004425	0.2063	0.003357	-0.002136	-0.18158	0.033417	-0.31296	0.026398	-0.033569	-0.048981	-0.028992	-0.004578	0.61859	0.24399	-0.13367	0.007019	-0.075684	-0.12405	-0.13046	0.15305	-0.044098	0.00412	0.10651	-0.016937	-0.023193	-0.016174	-0.020142	-0.009613	0.034332	-0.018005	0.000305	-0.007019
45.334	-0.014191	0.23102	-0.010071	-0.007019	-0.27649	0.16708	-0.31372	0.009613	-0.026398	-0.046692	-0.10803	-0.002747	0.38574	0.28168	0.11139	0.010376	-0.062256	-0.1004	-0.051422	0.18494	-0.034485	0.002441	0.059967	-0.053253	-0.021667	-0.014648	0.007172	-0.002594	0.037079	-0.003967	0.000916	-0.015564
45.335	-0.00473	0.21057	0.054474	0.012512	-0.19592	0.32059	-0.28366	-0.011292	0.0354	-0.05188	0.059509	-0.00351	-0.12009	0.17212	1.1403	0.009155	-0.040588	-0.081635	-0.028992	0.20996	-0.06073	0.01709	0.10223	0.015259	-0.039673	-0.015259	0.027161	-0.005951	-0.088501	-0.003815	0.002747	-0.017548
45.336	0.006561	0.25772	0.094452	0.015259	-0.13504	0.457	-0.28976	-0.009308	0.088806	0.010529	0.27344	-0.007935	-0.58746	-0.05188	0.069885	0.002899	-0.016785	-0.090332	-0.063324	0.10819	-0.069122	0.00946	0.099487	0.009613	-0.046387	-0.012207	0.061951	-0.005035	-0.18753	-0.019684	-0.003662	-0.015411
45.337	0.006104	0.24826	0.12009	0.022278	-0.014954	0.44708	-0.26199	-0.011139	0.080109	0.023193	0.24323	-0.00824	-0.65887	-0.1593	-0.013123	0.011902	-0.007935	-0.047455	-0.1915	0.059204	-0.074615	-0.00351	0.12054	-0.001068	-0.050507	-0.008698	0.074615	-0.005493	-0.15274	-0.018463	-0.004272	-0.013885
